<svg version="1.0" xmlns="http://www.w3.org/2000/svg"
  width="303.000000pt" height="312.000000pt" viewBox="0 0 303.000000 312.000000"
  preserveAspectRatio="xMidYMid meet">

  <g transform="translate(0.000000,312.000000) scale(0.100000,-0.100000)" stroke="none">

    <!-- Bodice (màu beige chủ đạo) -->
    <path fill="#DEC0B2" d="M1730 2899 c-46 -21 -76 -22 -201 -3 -54 7 -81 -6 -146 -76 -49 -52 -50 -55 -22 -95 63 -93 109 -223 112 -316 l2 -63 45 -14 c60 -18 248 -21 277 -4 l23 13 -25 47 c-64 125 -59 198 19 242 76 43 91 87 63 195 -10 38 -21 55 -47 73 -40 27 -43 27 -100 1z m-304 -150 c10 -17 -13 -36 -27 -22 -12 12 -4 33 11 33 5 0 12 -5 16 -11z m34 -89 c0 -5 -7 -10 -15 -10 -8 0 -15 5 -15 10 0 6 7 10 15 10 8 0 15 -4 15 -10z m20 -70 c0 -5 -4 -10 -10 -10 -5 0 -10 5 -10 10 0 6 5 10 10 10 6 0 10 -4 10 -10z"/>

    <!-- Rays / strokes (phối màu giống ảnh: beige - hồng - tím nhạt - xám) -->
    <path fill="#E3CBBF" d="M1810 2281 c0 -17 117 -171 529 -701 188 -241 202 -256 243 -265 52 -12 88 20 88 79 0 35 -8 47 -78 120 -44 44 -139 144 -213 221 -216 224 -549 555 -559 555 -6 0 -10 -4 -10 -9z"/>
    <path fill="#EAD7CE" d="M1440 2254 c-8 -7 -207 -204 -443 -436 l-427 -423 0 -47 c0 -78 72 -98 138 -40 39 36 309 362 699 845 45 56 79 105 77 109 -8 12 -27 8 -44 -8z"/>
    <path fill="#D4BFCB" d="M1667 2226 c-4 -9 -13 -128 -21 -264 -34 -563 -35 -542 14 -562 34 -14 73 4 85 39 5 15 -16 305 -51 707 -7 77 -17 107 -27 80z"/>
    <path fill="#E3CBBF" d="M1748 2234 c-16 -26 85 -926 107 -960 31 -48 109 -42 134 10 14 30 -31 228 -171 746 -52 191 -62 219 -70 204z"/>
    <path fill="#E0DBD3" d="M1469 2154 c-52 -79 -217 -351 -286 -474 -34 -60 -32 -89 6 -109 60 -32 70 -19 166 214 138 337 177 464 114 369z"/>
    <path fill="#DDCCD6" d="M1830 2173 c0 -7 12 -43 26 -80 14 -38 34 -93 44 -123 40 -118 111 -304 121 -317 26 -31 89 -1 89 42 0 10 -25 61 -57 114 -66 112 -113 195 -155 271 -17 30 -34 57 -38 60 -4 3 -12 14 -18 25 -6 11 -12 14 -12 8z"/>
    <path fill="#EAD7CE" d="M1523 2022 c-130 -423 -263 -908 -263 -955 0 -82 82 -122 141 -69 31 27 32 33 60 218 74 490 125 922 112 935 -5 5 -27 -53 -50 -129z"/>
    <path fill="#E3CBBF" d="M2180 1681 c0 -11 84 -213 143 -346 25 -55 55 -122 67 -150 12 -27 28 -63 35 -80 7 -16 20 -46 28 -66 25 -62 109 -59 131 4 12 34 23 15 -211 370 -173 261 -193 290 -193 268z"/>
    <path fill="#E0DBD3" d="M1074 1562 c-17 -20 -55 -73 -84 -117 -30 -44 -58 -84 -62 -90 -58 -69 -248 -372 -248 -395 0 -55 70 -90 112 -57 15 11 52 88 238 487 98 213 108 250 44 172z"/>
    <path fill="#DDCCD6" d="M2070 1556 c0 -19 19 -124 41 -233 23 -109 46 -220 52 -248 12 -63 25 -77 71 -77 40 0 80 21 95 51 15 26 -212 513 -250 536 -5 4 -9 -9 -9 -29z"/>
    <path fill="#EAD7CE" d="M1188 1457 c-64 -102 -249 -491 -244 -511 11 -44 127 -77 154 -43 5 6 19 55 32 107 12 52 39 172 61 265 52 228 52 269 -3 182z"/>
    <path fill="#E0DBD3" d="M1560 1420 c-1 -3 -16 -115 -34 -250 -18 -135 -31 -251 -28 -258 8 -22 40 -34 62 -22 19 10 20 21 20 258 0 142 -4 253 -10 262 -5 8 -10 13 -10 10z"/>
    <path fill="#D4BFCB" d="M1769 1345 c-9 -77 34 -528 53 -547 25 -25 55 -23 73 5 14 22 12 35 -19 168 -66 281 -102 408 -107 374z"/>
    <path fill="#E3CBBF" d="M1652 1208 c-6 -57 -14 -153 -18 -215 l-7 -112 25 -12 c50 -22 72 3 64 75 -4 33 -11 106 -16 161 -23 242 -31 259 -48 103z"/>
    <path fill="#DDCCD6" d="M2031 1135 c1 -66 4 -147 8 -180 l6 -60 35 0 c45 0 45 27 1 203 -43 175 -51 180 -50 37z"/>

    <!-- Text "DRESSUP" (xám rất nhạt) -->
    <path fill="#E5E0DA" d="M502 641 c-11 -6 -9 -10 7 -14 34 -9 32 -343 -1 -356 -30 -11 129 -25 207 -19 180 15 238 256 86 363 -41 29 -47 30 -164 32 -67 2 -128 -1 -135 -6z m197 -31 c114 -32 162 -145 111 -258 -30 -65 -122 -100 -194 -72 l-26 10 0 165 0 165 38 0 c20 0 52 -4 71 -10z"/>
    <path fill="#E5E0DA" d="M2080 639 c0 -4 9 -9 20 -12 19 -5 20 -14 20 -124 0 -205 30 -253 157 -253 123 0 155 47 160 235 3 103 7 132 19 142 19 14 1 21 -56 22 -48 0 -71 -14 -36 -23 l26 -6 0 -126 c0 -150 -12 -187 -66 -210 -43 -18 -73 -13 -111 20 -28 24 -28 25 -32 167 -3 128 -1 144 15 156 10 7 16 14 13 14 -16 5 -129 4 -129 -2z"/>
    <path fill="#E5E0DA" d="M1370 593 c-83 -3 -92 -5 -70 -16 24 -12 25 -16 28 -127 4 -160 0 -180 -41 -180 -26 0 -42 11 -89 61 -65 68 -66 69 -37 108 32 43 30 98 -5 127 -25 22 -36 24 -124 23 -68 0 -90 -3 -74 -9 21 -9 22 -13 22 -153 0 -98 -4 -147 -12 -155 -9 -9 2 -12 53 -11 35 1 55 4 44 6 -28 7 -35 21 -35 74 0 67 37 74 83 16 18 -22 44 -53 59 -69 l26 -28 151 0 151 0 0 30 c0 17 -4 30 -10 30 -5 0 -10 -7 -10 -15 0 -18 -41 -29 -75 -21 -23 6 -25 10 -25 71 l0 65 29 0 c16 0 37 -7 46 -16 19 -19 20 -18 29 19 l6 27 -55 -6 -55 -7 0 67 0 66 30 0 c18 0 37 -8 47 -19 9 -11 20 -18 25 -15 13 8 9 64 -4 62 -7 -1 -56 -4 -108 -5z m-259 -44 c31 -31 24 -109 -11 -126 -53 -25 -70 -9 -70 66 0 37 3 71 7 74 13 14 54 6 74 -14z"/>
    <path fill="#E5E0DA" d="M1613 590 c-28 -11 -43 -40 -43 -80 0 -33 17 -54 103 -127 42 -35 47 -63 17 -93 -33 -33 -100 -20 -100 20 0 11 -7 20 -16 20 -12 0 -14 -9 -12 -37 l3 -38 68 -3 c143 -6 172 107 49 198 -79 59 -91 87 -48 115 31 21 74 10 88 -21 14 -29 28 -22 28 15 0 39 -75 56 -137 31z"/>
    <path fill="#E5E0DA" d="M1865 575 c-47 -46 -36 -88 45 -165 75 -71 82 -88 50 -120 -33 -33 -110 -12 -110 30 0 6 -5 10 -11 10 -6 0 -9 -16 -7 -37 l3 -38 66 -3 c88 -4 119 18 119 85 0 48 -15 68 -108 145 -46 38 -42 80 10 93 21 5 33 1 53 -19 32 -32 31 -32 39 1 9 34 -5 43 -72 43 -43 0 -58 -5 -77 -25z"/>
    <path fill="#E5E0DA" d="M2529 574 c22 -16 23 -20 19 -156 -2 -110 -6 -141 -18 -148 -17 -11 -15 -12 40 -12 72 0 78 2 53 14 -22 11 -23 16 -23 155 l0 143 29 0 c36 0 71 -40 71 -81 0 -31 -34 -69 -61 -69 -10 0 -21 -4 -24 -10 -9 -14 48 -13 80 2 58 26 75 121 29 157 -23 18 -41 21 -123 21 -91 0 -94 -1 -72 -16z"/>

  </g>
</svg>
